<svg xmlns="http://www.w3.org/2000/svg" width="16" height="16" viewBox="0 0 16 16">
  <g fill="#50E3C2" fill-rule="evenodd">
    <rect width="1" height="3" x="12" y="13"/>
    <rect width="1" height="2" x="13" y="12"/>
    <rect width="1" height="1" x="14" y="11"/>
    <rect width="1" height="1" x="14" y="10"/>
    <rect width="1" height="1" x="14" y="9"/>
    <rect width="1" height="5" x="15" y="4"/>
    <rect width="2" height="1" x="14" y="3"/>
    <rect width="1" height="2" x="13" y="4"/>
    <rect width="1" height="5" x="12" y="2"/>
    <rect width="3" height="1" x="9" y="1"/>
    <rect width="2" height="1" x="7"/>
    <rect width="1" height="6" x="6" y="1"/>
    <rect width="1" height="1" x="5" y="2"/>
    <rect width="2" height="1" x="3" y="1"/>
    <rect width="1" height="3" x="2" y="2"/>
    <rect width="1" height="4" x="3" y="4"/>
    <rect width="2" height="1" x="1" y="6"/>
    <rect width="1" height="2" y="7"/>
    <rect width="1" height="2" x="1" y="8"/>
    <rect width="1" height="3" x="2" y="9"/>
    <rect width="1" height="2" x="3" y="11"/>
    <rect width="1" height="2" x="4" y="12"/>
    <rect width="1" height="2" x="5" y="13"/>
    <rect width="2" height="1" x="9" y="14"/>
    <rect width="1" height="1" x="11" y="15"/>
    <rect width="4" height="1" x="5" y="15"/>
    <rect width="1" height="3" x="4" y="6"/>
    <rect width="1" height="5" x="9" y="2"/>
    <rect width="1" height="4" x="7" y="9"/>
    <rect width="1" height="4" x="9" y="9"/>
    <rect width="1" height="4" x="11" y="9"/>
  </g>
</svg>
